<svg width="33" height="33" viewBox="0 0 33 33" fill="none" xmlns="http://www.w3.org/2000/svg">
<path d="M22.8252 8.0025C21.8855 6.92935 21.3676 5.55142 21.3677 4.125H17.119V21.175C17.0869 22.0979 16.6976 22.9722 16.0331 23.6136C15.3687 24.2549 14.4812 24.6131 13.5577 24.6125C11.6052 24.6125 9.98272 23.0175 9.98272 21.0375C9.98272 18.6725 12.2652 16.8987 14.6165 17.6275V13.2825C9.87271 12.65 5.72021 16.335 5.72021 21.0375C5.72021 25.6163 9.51522 28.875 13.544 28.875C17.8615 28.875 21.3677 25.3687 21.3677 21.0375V12.3888C23.0906 13.626 25.1591 14.2899 27.2802 14.2863V10.0375C27.2802 10.0375 24.6952 10.1613 22.8252 8.0025Z" fill="#FAF9F6"/>
</svg>
