<svg width="47" height="47" viewBox="0 0 47 47" fill="none" xmlns="http://www.w3.org/2000/svg">
<path d="M15.2748 3.91663H31.7248C37.9915 3.91663 43.0832 9.00829 43.0832 15.275V31.725C43.0832 34.7374 41.8865 37.6264 39.7564 39.7565C37.6263 41.8866 34.7373 43.0833 31.7248 43.0833H15.2748C9.00817 43.0833 3.9165 37.9916 3.9165 31.725V15.275C3.9165 12.2625 5.11318 9.37351 7.24328 7.24341C9.37338 5.1133 12.2624 3.91663 15.2748 3.91663ZM14.8832 7.83329C13.0134 7.83329 11.2202 8.57606 9.89807 9.89819C8.57594 11.2203 7.83317 13.0135 7.83317 14.8833V32.1166C7.83317 36.0137 10.9861 39.1666 14.8832 39.1666H32.1165C33.9863 39.1666 35.7795 38.4239 37.1016 37.1017C38.4237 35.7796 39.1665 33.9864 39.1665 32.1166V14.8833C39.1665 10.9862 36.0136 7.83329 32.1165 7.83329H14.8832ZM33.7811 10.7708C34.4303 10.7708 35.053 11.0287 35.512 11.4878C35.9711 11.9468 36.229 12.5695 36.229 13.2187C36.229 13.8679 35.9711 14.4906 35.512 14.9496C35.053 15.4087 34.4303 15.6666 33.7811 15.6666C33.1319 15.6666 32.5092 15.4087 32.0501 14.9496C31.5911 14.4906 31.3332 13.8679 31.3332 13.2187C31.3332 12.5695 31.5911 11.9468 32.0501 11.4878C32.5092 11.0287 33.1319 10.7708 33.7811 10.7708ZM23.4998 13.7083C26.0967 13.7083 28.5873 14.7399 30.4236 16.5762C32.2599 18.4125 33.2915 20.903 33.2915 23.5C33.2915 26.0969 32.2599 28.5874 30.4236 30.4237C28.5873 32.26 26.0967 33.2916 23.4998 33.2916C20.9029 33.2916 18.4124 32.26 16.5761 30.4237C14.7398 28.5874 13.7082 26.0969 13.7082 23.5C13.7082 20.903 14.7398 18.4125 16.5761 16.5762C18.4124 14.7399 20.9029 13.7083 23.4998 13.7083ZM23.4998 17.625C21.9417 17.625 20.4474 18.2439 19.3456 19.3457C18.2438 20.4475 17.6248 21.9418 17.6248 23.5C17.6248 25.0581 18.2438 26.5524 19.3456 27.6542C20.4474 28.756 21.9417 29.375 23.4998 29.375C25.058 29.375 26.5523 28.756 27.6541 27.6542C28.7559 26.5524 29.3748 25.0581 29.3748 23.5C29.3748 21.9418 28.7559 20.4475 27.6541 19.3457C26.5523 18.2439 25.058 17.625 23.4998 17.625Z" fill="#FAF9F6"/>
</svg>
