<svg width="16" height="16" viewBox="0 0 16 16" fill="none" xmlns="http://www.w3.org/2000/svg">
<path fill-rule="evenodd" clip-rule="evenodd" d="M10 1.3335L10.0001 2.87512C10.5185 3.07776 11.003 3.35801 11.4372 3.70625L12.7735 2.93478L14.7735 6.39887L13.4378 7.17012C13.4793 7.44485 13.5001 7.72231 13.5 8.00015C13.5 8.28234 13.4788 8.55953 13.4378 8.83022L14.7735 9.60147L12.7735 13.0655L11.4373 12.2941C11.0031 12.6423 10.5185 12.9225 10.0001 13.1252L10 14.6668H6V13.1252C5.4816 12.9226 4.99701 12.6423 4.56281 12.2941L3.22653 13.0656L1.22653 9.60143L2.56225 8.83025C2.52074 8.5555 2.49994 8.27802 2.50003 8.00015C2.50003 7.718 2.52125 7.44078 2.56222 7.17009L1.2265 6.39887L3.2265 2.93478L4.56275 3.70625C4.99696 3.35801 5.48156 3.07778 5.99997 2.87515L6 1.3335H10ZM8 6.00015C6.89544 6.00015 6 6.89559 6 8.00015C6 9.10472 6.89544 10.0002 8 10.0002C9.10456 10.0002 10 9.10475 10 8.00015C10 6.89559 9.10456 6.00015 8 6.00015Z" fill="black"/>
</svg>
