<svg width="47" height="47" viewBox="0 0 47 47" fill="none" xmlns="http://www.w3.org/2000/svg">
<path d="M9.67359 40.6288C8.60951 40.6288 7.69891 40.2502 6.9418 39.4931C6.18469 38.736 5.80549 37.8247 5.8042 36.7594V9.67359C5.8042 8.60951 6.1834 7.69891 6.9418 6.9418C7.7002 6.18469 8.6108 5.80549 9.67359 5.8042H36.7594C37.8234 5.8042 38.7347 6.1834 39.4931 6.9418C40.2515 7.7002 40.6301 8.6108 40.6288 9.67359V36.7594C40.6288 37.8234 40.2502 38.7347 39.4931 39.4931C38.736 40.2515 37.8247 40.6301 36.7594 40.6288H9.67359ZM9.67359 36.7594H36.7594V9.67359H9.67359V36.7594ZM11.6083 32.89H34.8247L27.5695 23.2165L21.7655 30.9553L17.4124 25.1512L11.6083 32.89Z" fill="#FAF9F6"/>
</svg>
